<svg xmlns="http://www.w3.org/2000/svg" width="1600" height="1140" viewBox="0 0 1600 1140" role="img" aria-label="YatraFlow budget tab mockup using Calm Travel Intelligence design language">
<defs>
  <linearGradient id="bg" x1="0" y1="0" x2="1" y2="1"><stop stop-color="#ecf8f4"/><stop offset=".54" stop-color="#f8f7ef"/><stop offset="1" stop-color="#fff2e8"/></linearGradient>
  <linearGradient id="hero" x1="0" x2="1"><stop stop-color="#0d716b"/><stop offset=".52" stop-color="#104b59"/><stop offset="1" stop-color="#112c4c"/></linearGradient>
  <linearGradient id="cta" x1="0" x2="1"><stop stop-color="#0d9185"/><stop offset="1" stop-color="#0b6e69"/></linearGradient>
  <linearGradient id="spend" x1="0" x2="1"><stop stop-color="#0b8a80"/><stop offset="1" stop-color="#57b298"/></linearGradient>
  <filter id="shadow" x="-20%" y="-20%" width="140%" height="150%"><feDropShadow dx="0" dy="10" stdDeviation="16" flood-color="#143b41" flood-opacity=".17"/></filter>
  <filter id="soft" x="-20%" y="-20%" width="140%" height="150%"><feDropShadow dx="0" dy="5" stdDeviation="9" flood-color="#143b41" flood-opacity=".11"/></filter>
</defs>
<rect width="1600" height="1140" fill="url(#bg)"/>
<g font-family="Arial, sans-serif">
<!-- nav -->
<rect x="30" y="22" width="1540" height="62" rx="19" fill="#ffffffdc" stroke="#fff" filter="url(#soft)"/><circle cx="70" cy="53" r="16" fill="#103f49"/><path d="M62 57c4-11 10-11 16 0" fill="none" stroke="#68d1c1" stroke-width="2"/><text x="97" y="61" font-size="22" font-weight="700" fill="#143541">Yatra<tspan fill="#0b8f84">Flow</tspan></text><text x="261" y="59" font-size="13" font-weight="700" fill="#426064">My trips</text><text x="339" y="59" font-size="13" font-weight="700" fill="#426064">Plan a trip</text><text x="439" y="59" font-size="13" font-weight="700" fill="#426064">Explore</text><rect x="1410" y="37" width="116" height="31" rx="11" fill="#fff7ea" stroke="#eadfce"/><text x="1428" y="58" font-size="12" font-weight="700" fill="#765121">☾  🔔  H</text>
<!-- trip hero -->
<rect x="49" y="103" width="1502" height="112" rx="23" fill="url(#hero)" filter="url(#soft)"/><text x="80" y="135" font-size="12" font-weight="700" fill="#b9dcd7">← ALL TRIPS</text><text x="80" y="177" font-size="30" font-weight="700" fill="#fff">🎒 North South</text><text x="80" y="201" font-size="13" fill="#d2e7e3">Kolkata → Leh · 1–10 Sep 2026 · 4 travellers · Motorcycle · Relaxed</text><rect x="1311" y="142" width="205" height="44" rx="14" fill="#f4ab40"/><text x="1338" y="170" font-size="13" font-weight="700" fill="#19323d">Invite &amp; share →</text>
<!-- tabs -->
<text x="71" y="251" font-size="13" fill="#5b7275">Overview</text><text x="157" y="251" font-size="13" fill="#5b7275">Timeline</text><text x="241" y="251" font-size="13" fill="#5b7275">Board ✨</text><text x="327" y="251" font-size="13" fill="#5b7275">Map</text><text x="378" y="251" font-size="13" fill="#5b7275">Suggestions</text><rect x="478" y="229" width="72" height="35" rx="12" fill="#e5f4ee"/><text x="495" y="251" font-size="13" font-weight="700" fill="#0b8178">Budget</text><text x="568" y="251" font-size="13" fill="#5b7275">Decisions</text><text x="656" y="251" font-size="13" fill="#5b7275">Share</text><path d="M50 273H1550" stroke="#d6e2dc"/>
<!-- heading -->
<text x="74" y="326" font-size="24" font-weight="700" fill="#14334d">A budget the group can trust</text><text x="74" y="351" font-size="13" fill="#637b7d">See the total, your per-person estimate and exactly what route changes will cost.</text><rect x="1314" y="300" width="207" height="42" rx="14" fill="url(#cta)" filter="url(#soft)"/><text x="1336" y="327" font-size="13" font-weight="700" fill="#fff">＋ Add an expense</text>
<!-- big budget card -->
<rect x="74" y="382" width="716" height="187" rx="24" fill="#143f4c" filter="url(#shadow)"/><text x="102" y="417" font-size="11" font-weight="700" fill="#bde1da">TOTAL TRIP ESTIMATE</text><text x="102" y="480" font-size="45" font-weight="700" fill="#fff">₹21,633</text><text x="297" y="476" font-size="14" fill="#c7e2de">for 4 travellers</text><rect x="102" y="502" width="596" height="9" rx="5" fill="#ffffff2f"/><rect x="102" y="502" width="429" height="9" rx="5" fill="#62c4a8"/><text x="102" y="541" font-size="12" fill="#d6ebe7">₹21,633 of ₹25,000 group budget</text><text x="524" y="541" font-size="12" font-weight="700" fill="#a9ead7">₹3,367 remaining</text>
<rect x="813" y="382" width="333" height="187" rx="24" fill="#ffffffdd" stroke="#fff" filter="url(#soft)"/><text x="839" y="417" font-size="11" font-weight="700" fill="#718788">YOUR SHARE</text><text x="839" y="472" font-size="37" font-weight="700" fill="#173d4b">₹5,408</text><text x="839" y="499" font-size="13" fill="#5e7779">Per person · estimates only</text><rect x="839" y="522" width="151" height="27" rx="13" fill="#e8f5ef"/><text x="856" y="541" font-size="11" font-weight="700" fill="#176b62">₹842 under target</text>
<rect x="1169" y="382" width="352" height="187" rx="24" fill="#fff7e9" stroke="#f3dfba" filter="url(#soft)"/><text x="1195" y="417" font-size="11" font-weight="700" fill="#a36b2b">BUDGET WATCH</text><text x="1195" y="451" font-size="17" font-weight="700" fill="#5e4029">Day 3 has the biggest</text><text x="1195" y="475" font-size="17" font-weight="700" fill="#5e4029">cost uncertainty.</text><text x="1195" y="506" font-size="12" fill="#796040">Stay choice could change the</text><text x="1195" y="526" font-size="12" fill="#796040">group total by ₹1,200.</text><text x="1195" y="550" font-size="12" font-weight="700" fill="#a36024">Review decision →</text>
<!-- main section -->
<text x="74" y="625" font-size="17" font-weight="700" fill="#14334d">Where the money goes</text><text x="74" y="649" font-size="12" fill="#697f81">Transparent estimates — update individual items as bookings become real.</text>
<!-- category panel -->
<rect x="74" y="677" width="654" height="295" rx="22" fill="#ffffffdc" stroke="#fff" filter="url(#shadow)"/><text x="99" y="710" font-size="11" font-weight="700" fill="#718687">ESTIMATED BY CATEGORY</text>
<text x="99" y="751" font-size="13" font-weight="700" fill="#234a50">🏍 Transport &amp; fuel</text><text x="625" y="751" text-anchor="end" font-size="13" font-weight="700" fill="#234a50">₹8,960</text><rect x="99" y="764" width="527" height="10" rx="5" fill="#e8efeb"/><rect x="99" y="764" width="365" height="10" rx="5" fill="#0d8b80"/>
<text x="99" y="810" font-size="13" font-weight="700" fill="#234a50">🛏 Stays</text><text x="625" y="810" text-anchor="end" font-size="13" font-weight="700" fill="#234a50">₹6,800</text><rect x="99" y="823" width="527" height="10" rx="5" fill="#e8efeb"/><rect x="99" y="823" width="277" height="10" rx="5" fill="#55ae96"/>
<text x="99" y="869" font-size="13" font-weight="700" fill="#234a50">🍲 Food &amp; breaks</text><text x="625" y="869" text-anchor="end" font-size="13" font-weight="700" fill="#234a50">₹3,920</text><rect x="99" y="882" width="527" height="10" rx="5" fill="#e8efeb"/><rect x="99" y="882" width="160" height="10" rx="5" fill="#e8ae43"/>
<text x="99" y="928" font-size="13" font-weight="700" fill="#234a50">✦ Activities &amp; permits</text><text x="625" y="928" text-anchor="end" font-size="13" font-weight="700" fill="#234a50">₹1,953</text><rect x="99" y="941" width="527" height="10" rx="5" fill="#e8efeb"/><rect x="99" y="941" width="80" height="10" rx="5" fill="#897abb"/>
<!-- day-by-day -->
<rect x="751" y="677" width="770" height="295" rx="22" fill="#ffffffdc" stroke="#fff" filter="url(#shadow)"/><text x="777" y="710" font-size="11" font-weight="700" fill="#718687">COST BY DAY</text><text x="1487" y="710" text-anchor="end" font-size="11" font-weight="700" fill="#0b8178">See all expense items →</text>
<text x="777" y="753" font-size="13" font-weight="700" fill="#234a50">Day 1 · Kolkata → Bihar</text><rect x="1001" y="739" width="358" height="18" rx="9" fill="#e9efeb"/><rect x="1001" y="739" width="218" height="18" rx="9" fill="#0d8b80"/><text x="1485" y="753" text-anchor="end" font-size="13" font-weight="700" fill="#234a50">₹4,248</text>
<text x="777" y="805" font-size="13" font-weight="700" fill="#234a50">Day 2 · Bihar → Sarchu</text><rect x="1001" y="791" width="358" height="18" rx="9" fill="#e9efeb"/><rect x="1001" y="791" width="176" height="18" rx="9" fill="#55ae96"/><text x="1485" y="805" text-anchor="end" font-size="13" font-weight="700" fill="#234a50">₹3,420</text>
<rect x="768" y="830" width="729" height="47" rx="14" fill="#fff6e9"/><text x="782" y="858" font-size="13" font-weight="700" fill="#8f5b26">⚠ Day 3 · Sarchu → Leh</text><rect x="1001" y="844" width="358" height="18" rx="9" fill="#f1e5d4"/><rect x="1001" y="844" width="292" height="18" rx="9" fill="#e5a13f"/><text x="1485" y="858" text-anchor="end" font-size="13" font-weight="700" fill="#8f5b26">₹5,610*</text>
<text x="782" y="897" font-size="11" fill="#866643">*Includes unconfirmed overnight stay — decision pending</text>
<text x="777" y="936" font-size="13" font-weight="700" fill="#234a50">Remaining 7 days</text><rect x="1001" y="922" width="358" height="18" rx="9" fill="#e9efeb"/><rect x="1001" y="922" width="254" height="18" rx="9" fill="#897abb"/><text x="1485" y="936" text-anchor="end" font-size="13" font-weight="700" fill="#234a50">₹8,355</text>
<!-- budget reassurance and CTA -->
<rect x="74" y="998" width="1447" height="62" rx="19" fill="#143f4c" filter="url(#soft)"/><text x="101" y="1034" font-size="14" font-weight="700" fill="#fff">✦ Keep estimates honest</text><text x="310" y="1034" font-size="13" fill="#c5e1dc">When you move a stop or choose a different stay, YatraFlow previews the new total before you save.</text><text x="1326" y="1034" font-size="12" font-weight="700" fill="#ffcc74">Review changes →</text>
<text x="74" y="1114" font-size="17" font-weight="700" fill="#14334d">7. Budget — transparent, group-aware and connected to route decisions</text><text x="74" y="1135" font-size="13" fill="#5e7779">The design keeps the familiar totals but makes uncertainty, per-person accountability and the cost of itinerary changes easier to understand.</text>
</g></svg>