<svg xmlns="http://www.w3.org/2000/svg" width="1600" height="1090" viewBox="0 0 1600 1090" role="img" aria-label="YatraFlow map view mockup using Calm Travel Intelligence design language">
<defs>
  <linearGradient id="bg" x1="0" y1="0" x2="1" y2="1"><stop stop-color="#ecf8f4"/><stop offset=".55" stop-color="#f8f7ef"/><stop offset="1" stop-color="#fff1e6"/></linearGradient>
  <linearGradient id="hero" x1="0" x2="1"><stop stop-color="#0d716b"/><stop offset=".52" stop-color="#104b59"/><stop offset="1" stop-color="#112c4c"/></linearGradient>
  <linearGradient id="land" x1="0" y1="0" x2="1" y2="1"><stop stop-color="#badfd5"/><stop offset=".52" stop-color="#e1e9cf"/><stop offset="1" stop-color="#e8d9b5"/></linearGradient>
  <linearGradient id="route" x1="0" x2="1"><stop stop-color="#ed9a39"/><stop offset=".55" stop-color="#ffd27c"/><stop offset="1" stop-color="#e56d4e"/></linearGradient>
  <filter id="shadow" x="-20%" y="-20%" width="140%" height="150%"><feDropShadow dx="0" dy="10" stdDeviation="16" flood-color="#143b41" flood-opacity=".19"/></filter>
  <filter id="soft" x="-20%" y="-20%" width="140%" height="150%"><feDropShadow dx="0" dy="5" stdDeviation="9" flood-color="#143b41" flood-opacity=".13"/></filter>
  <pattern id="roads" width="165" height="142" patternUnits="userSpaceOnUse"><path d="M-20 90C38 45 92 111 197 55" fill="none" stroke="#fffdf6" stroke-width="5" stroke-opacity=".7"/><path d="M-16 35C37 42 64 0 157 35" fill="none" stroke="#ffffff" stroke-width="3" stroke-opacity=".7"/><path d="M75-8C68 44 112 83 79 151" fill="none" stroke="#dae9dc" stroke-width="3"/><path d="M7 123C45 96 97 128 165 100" fill="none" stroke="#c9dfe0" stroke-width="2"/></pattern>
</defs>
<rect width="1600" height="1090" fill="url(#bg)"/>
<g font-family="Arial, sans-serif">
<!-- global nav -->
<rect x="30" y="22" width="1540" height="62" rx="19" fill="#ffffffdb" stroke="#fff" filter="url(#soft)"/>
<circle cx="70" cy="53" r="16" fill="#103f49"/><path d="M62 57c4-11 10-11 16 0" fill="none" stroke="#68d1c1" stroke-width="2"/><text x="97" y="61" font-size="22" font-weight="700" fill="#143541">Yatra<tspan fill="#0b8f84">Flow</tspan></text><text x="261" y="59" font-size="13" font-weight="700" fill="#426064">My trips</text><text x="339" y="59" font-size="13" font-weight="700" fill="#426064">Plan a trip</text><text x="439" y="59" font-size="13" font-weight="700" fill="#426064">Explore</text><rect x="1410" y="37" width="116" height="31" rx="11" fill="#fff7ea" stroke="#eadfce"/><text x="1428" y="58" font-size="12" font-weight="700" fill="#765121">☾  🔔  H</text>
<!-- workspace hero -->
<rect x="49" y="103" width="1502" height="112" rx="23" fill="url(#hero)" filter="url(#soft)"/><text x="80" y="135" font-size="12" font-weight="700" fill="#b9dcd7">← ALL TRIPS</text><text x="80" y="177" font-size="30" font-weight="700" fill="#fff">🎒 North South</text><text x="80" y="201" font-size="13" fill="#d2e7e3">Kolkata → Leh · 1–10 Sep 2026 · 4 travellers · Motorcycle · Relaxed</text><rect x="1311" y="142" width="205" height="44" rx="14" fill="#f4ab40"/><text x="1338" y="170" font-size="13" font-weight="700" fill="#19323d">Invite &amp; share →</text>
<!-- tabs -->
<text x="71" y="251" font-size="13" fill="#5b7275">Overview</text><text x="157" y="251" font-size="13" fill="#5b7275">Timeline</text><text x="241" y="251" font-size="13" fill="#5b7275">Board ✨</text><rect x="316" y="229" width="59" height="35" rx="12" fill="#e5f4ee"/><text x="332" y="251" font-size="13" font-weight="700" fill="#0b8178">Map</text><text x="391" y="251" font-size="13" fill="#5b7275">Suggestions</text><text x="489" y="251" font-size="13" fill="#5b7275">Budget</text><text x="553" y="251" font-size="13" fill="#5b7275">Decisions</text><text x="641" y="251" font-size="13" fill="#5b7275">Share</text><path d="M50 273H1550" stroke="#d6e2dc"/>
<!-- map frame -->
<rect x="49" y="292" width="1502" height="732" rx="25" fill="url(#land)" filter="url(#shadow)"/>
<rect x="49" y="292" width="1502" height="732" rx="25" fill="url(#roads)"/>
<path d="M49 750C165 612 301 790 461 674S718 585 879 699s300 83 672-103V1024H49Z" fill="#a1cab7" fill-opacity=".72"/><path d="M49 855C207 718 371 911 562 793s304-15 472 96 304 24 517-70v205H49Z" fill="#8fb8a7" fill-opacity=".59"/>
<!-- route -->
<path d="M142 866 C286 682 389 799 527 662 S764 468 923 601 S1141 754 1450 489" fill="none" stroke="url(#route)" stroke-width="12" stroke-linecap="round"/><path d="M142 866 C286 682 389 799 527 662 S764 468 923 601 S1141 754 1450 489" fill="none" stroke="#fff8dc" stroke-width="3" stroke-dasharray="11 10" stroke-linecap="round"/>
<!-- sidebar -->
<rect x="73" y="319" width="358" height="597" rx="21" fill="#ffffffeb" stroke="#fff" filter="url(#shadow)"/>
<text x="99" y="355" font-size="17" font-weight="700" fill="#163e47">Your route</text><text x="99" y="379" font-size="12" fill="#667e80">10 days · 4,807 km · 60h 15m on the road</text>
<rect x="98" y="399" width="309" height="37" rx="12" fill="#eff6f2"/><text x="116" y="422" font-size="12" font-weight="700" fill="#2c5d61">⌕  Find a place, fuel stop or activity</text>
<!-- filter chips -->
<text x="99" y="467" font-size="11" font-weight="700" fill="#758a8b">SHOW ON MAP</text><rect x="99" y="480" width="62" height="28" rx="14" fill="#0c857b"/><text x="116" y="499" font-size="11" font-weight="700" fill="#fff">All days</text><rect x="170" y="480" width="58" height="28" rx="14" fill="#eef3f0"/><text x="185" y="499" font-size="11" fill="#416469">Day 1</text><rect x="237" y="480" width="58" height="28" rx="14" fill="#eef3f0"/><text x="252" y="499" font-size="11" fill="#416469">Day 2</text><rect x="304" y="480" width="58" height="28" rx="14" fill="#fff1e8"/><text x="319" y="499" font-size="11" font-weight="700" fill="#a05b2e">Day 3 ⚠</text>
<!-- route list -->
<text x="99" y="550" font-size="11" font-weight="700" fill="#758a8b">ROUTE STOPS</text>
<circle cx="116" cy="581" r="11" fill="#103f49"/><text x="112" y="585" font-size="10" font-weight="700" fill="#fff">1</text><text x="139" y="578" font-size="13" font-weight="700" fill="#244951">Kolkata</text><text x="139" y="597" font-size="11" fill="#728587">Trip starts · 1 Sep</text><path d="M116 604V626" stroke="#a8c8c0" stroke-width="2" stroke-dasharray="3 3"/>
<circle cx="116" cy="641" r="11" fill="#e57351"/><text x="112" y="645" font-size="10" font-weight="700" fill="#fff">3</text><text x="139" y="638" font-size="13" font-weight="700" fill="#244951">Sarchu</text><text x="139" y="657" font-size="11" fill="#728587">Overnight base · Day 3</text><path d="M116 664V686" stroke="#a8c8c0" stroke-width="2" stroke-dasharray="3 3"/>
<circle cx="116" cy="701" r="11" fill="#0b8076"/><text x="112" y="705" font-size="10" font-weight="700" fill="#fff">5</text><text x="139" y="698" font-size="13" font-weight="700" fill="#244951">Leh</text><text x="139" y="717" font-size="11" fill="#728587">2 nights · Day 5–6</text><path d="M116 724V746" stroke="#a8c8c0" stroke-width="2" stroke-dasharray="3 3"/>
<circle cx="116" cy="761" r="11" fill="#7465a2"/><text x="112" y="765" font-size="10" font-weight="700" fill="#fff">8</text><text x="139" y="758" font-size="13" font-weight="700" fill="#244951">Nubra Valley</text><text x="139" y="777" font-size="11" fill="#728587">Scenic loop · Day 8</text>
<path d="M99 800H405" stroke="#e1eae5"/><text x="99" y="829" font-size="12" font-weight="700" fill="#0a8177">Open full stop list →</text>
<!-- suggestions float -->
<rect x="97" y="852" width="310" height="46" rx="14" fill="#fff5e5"/><text x="115" y="880" font-size="12" font-weight="700" fill="#976329">✦ 6 nearby ideas along this route</text>
<!-- pins -->
<g font-size="11" font-weight="700" text-anchor="middle"><circle cx="162" cy="821" r="18" fill="#103f49" stroke="#fff" stroke-width="3"/><text x="162" y="825" fill="#fff">1</text><text x="162" y="854" fill="#315d61">Kolkata</text><circle cx="526" cy="662" r="18" fill="#e56f4d" stroke="#fff" stroke-width="3"/><text x="526" y="666" fill="#fff">3</text><text x="526" y="695" fill="#315d61">Sarchu</text><circle cx="922" cy="601" r="21" fill="#0a8177" stroke="#fff" stroke-width="4"/><text x="922" y="606" fill="#fff">5</text><text x="922" y="637" fill="#315d61">Leh</text><circle cx="1294" cy="622" r="18" fill="#7465a2" stroke="#fff" stroke-width="3"/><text x="1294" y="626" fill="#fff">8</text><text x="1294" y="655" fill="#315d61">Nubra</text></g>
<!-- selected destination popup -->
<rect x="952" y="448" width="264" height="132" rx="18" fill="#fffdf7" filter="url(#shadow)"/><text x="974" y="480" font-size="12" font-weight="700" fill="#0b8178">DAY 5–6 · BASE</text><text x="974" y="511" font-size="21" font-weight="700" fill="#173d49">Leh</text><text x="974" y="535" font-size="12" fill="#60787a">Stay 2 nights · 3 planned stops</text><rect x="974" y="546" width="110" height="23" rx="10" fill="#e5f4ef"/><text x="987" y="562" font-size="10" font-weight="700" fill="#176b61">Open Day 5 →</text>
<!-- controls -->
<rect x="1468" y="758" width="53" height="104" rx="15" fill="#ffffffdf" filter="url(#soft)"/><text x="1487" y="794" font-size="24" font-weight="700" fill="#244d52">+</text><path d="M1479 812H1511" stroke="#dbe5df"/><text x="1488" y="845" font-size="25" font-weight="700" fill="#244d52">−</text>
<rect x="1234" y="940" width="286" height="46" rx="15" fill="#123f49" filter="url(#soft)"/><text x="1256" y="969" font-size="13" font-weight="700" fill="#fff">✨ Ask: “Where should we stop?”</text>
<!-- legend -->
<rect x="468" y="942" width="450" height="44" rx="15" fill="#ffffffd9" filter="url(#soft)"/><circle cx="491" cy="964" r="6" fill="#e56f4d"/><text x="504" y="968" font-size="11" fill="#4d6b6e">Route day</text><circle cx="590" cy="964" r="6" fill="#4ba78e"/><text x="603" y="968" font-size="11" fill="#4d6b6e">Stay / booked</text><circle cx="709" cy="964" r="6" fill="#e4ae42"/><text x="722" y="968" font-size="11" fill="#4d6b6e">Food / fuel</text><circle cx="817" cy="964" r="6" fill="#897abb"/><text x="830" y="968" font-size="11" fill="#4d6b6e">Activity</text>
<text x="65" y="1061" font-size="17" font-weight="700" fill="#14334d">4. Map — geographic clarity with calm, actionable overlays</text><text x="65" y="1083" font-size="13" fill="#5e7779">The map becomes a route-control surface: filters, stop context, nearby ideas and direct links back to precise Timeline or Board editing.</text>
</g></svg>