<svg xmlns="http://www.w3.org/2000/svg" width="1600" height="1080" viewBox="0 0 1600 1080" role="img" aria-label="YatraFlow Board mockup using Calm Travel Intelligence design language: translucent day planning panels over a route map">
<defs>
  <linearGradient id="bg" x1="0" y1="0" x2="1" y2="1"><stop stop-color="#eaf8f4"/><stop offset=".52" stop-color="#f6f7ee"/><stop offset="1" stop-color="#fff1e6"/></linearGradient>
  <linearGradient id="hero" x1="0" x2="1"><stop stop-color="#0d716b"/><stop offset=".53" stop-color="#104c59"/><stop offset="1" stop-color="#102c4c"/></linearGradient>
  <linearGradient id="route" x1="0" x2="1"><stop stop-color="#f0a53f"/><stop offset=".5" stop-color="#fed886"/><stop offset="1" stop-color="#e8694e"/></linearGradient>
  <filter id="shadow" x="-22%" y="-24%" width="145%" height="155%"><feDropShadow dx="0" dy="10" stdDeviation="16" flood-color="#123d42" flood-opacity=".2"/></filter>
  <filter id="soft" x="-22%" y="-24%" width="145%" height="155%"><feDropShadow dx="0" dy="5" stdDeviation="9" flood-color="#123d42" flood-opacity=".15"/></filter>
  <pattern id="roads" width="180" height="150" patternUnits="userSpaceOnUse"><path d="M-20 90C38 52 85 116 210 53" fill="none" stroke="#ffffff" stroke-opacity=".62" stroke-width="5"/><path d="M16 -8C43 42 97 19 156 72" fill="none" stroke="#fffdf7" stroke-opacity=".65" stroke-width="3"/><path d="M90 0C68 50 118 98 81 161" fill="none" stroke="#d5ebdf" stroke-opacity=".8" stroke-width="3"/></pattern>
</defs>
<rect width="1600" height="1080" fill="url(#bg)"/>
<g font-family="Arial, sans-serif">
<!-- nav -->
<rect x="30" y="22" width="1540" height="62" rx="19" fill="#ffffffdc" stroke="#fff" filter="url(#soft)"/>
<circle cx="70" cy="53" r="16" fill="#103f49"/><path d="M62 57c4-11 10-11 16 0" fill="none" stroke="#68d1c1" stroke-width="2"/><text x="97" y="61" font-size="22" font-weight="700" fill="#153540">Yatra<tspan fill="#0b8f84">Flow</tspan></text><text x="261" y="59" font-size="13" font-weight="700" fill="#426064">My trips</text><text x="339" y="59" font-size="13" font-weight="700" fill="#426064">Plan a trip</text><text x="439" y="59" font-size="13" font-weight="700" fill="#426064">Explore</text><rect x="1410" y="37" width="116" height="31" rx="11" fill="#fff7ea" stroke="#eadfce"/><text x="1428" y="58" font-size="12" font-weight="700" fill="#765121">☾  🔔  H</text>
<!-- hero -->
<rect x="49" y="103" width="1502" height="113" rx="23" fill="url(#hero)" filter="url(#soft)"/><text x="80" y="135" font-size="12" font-weight="700" fill="#b9dcd7">← ALL TRIPS</text><text x="80" y="177" font-size="30" font-weight="700" fill="#fff">🎒 North South</text><text x="80" y="201" font-size="13" fill="#d3e8e4">Kolkata → Leh · 1–10 Sep 2026 · 4 travellers · Motorcycle · Relaxed</text><rect x="1312" y="142" width="205" height="44" rx="14" fill="#f4ab40"/><text x="1338" y="170" font-size="13" font-weight="700" fill="#19323d">Invite &amp; share →</text>
<!-- tabs -->
<text x="71" y="251" font-size="13" fill="#5b7275">Overview</text><text x="157" y="251" font-size="13" fill="#5b7275">Timeline</text><rect x="235" y="229" width="82" height="35" rx="12" fill="#e5f4ee"/><text x="255" y="251" font-size="13" font-weight="700" fill="#0b8178">Board ✨</text><text x="337" y="251" font-size="13" fill="#5b7275">Map</text><text x="388" y="251" font-size="13" fill="#5b7275">Suggestions</text><text x="486" y="251" font-size="13" fill="#5b7275">Budget</text><text x="550" y="251" font-size="13" fill="#5b7275">Decisions</text><text x="638" y="251" font-size="13" fill="#5b7275">Share</text><path d="M50 273H1550" stroke="#d6e2dc"/>
<!-- board header -->
<text x="68" y="316" font-size="22" font-weight="700" fill="#14334d">Trip Board</text><text x="68" y="340" font-size="13" fill="#61797b">Arrange flexible stops across days while keeping the real route in view.</text><rect x="1170" y="292" width="177" height="36" rx="12" fill="#ffffffc9" stroke="#dbe7e1"/><text x="1192" y="315" font-size="12" font-weight="700" fill="#316064">⌕  Search places</text><rect x="1360" y="292" width="162" height="36" rx="12" fill="#0c8d82"/><text x="1383" y="315" font-size="12" font-weight="700" fill="#fff">＋ Add a stop</text>
<!-- Map background -->
<rect x="49" y="363" width="1502" height="642" rx="25" fill="#b9ded4" filter="url(#shadow)"/><rect x="49" y="363" width="1502" height="642" rx="25" fill="url(#roads)"/>
<path d="M49 796C224 673 357 864 548 758S820 661 1011 791s360 23 540-118V1005H49Z" fill="#98c9b9" fill-opacity=".72"/><path d="M49 895C195 759 350 943 568 845s308-14 472 91 357 19 511-71v140H49Z" fill="#8ebcad" fill-opacity=".62"/>
<path d="M126 824 C267 680 394 772 532 644 S743 496 902 625 S1137 738 1464 501" fill="none" stroke="url(#route)" stroke-width="11" stroke-linecap="round"/><path d="M126 824 C267 680 394 772 532 644 S743 496 902 625 S1137 738 1464 501" fill="none" stroke="#fff8de" stroke-width="3" stroke-dasharray="10 10" stroke-linecap="round"/>
<!-- map labels/pins -->
<g font-size="11" font-weight="700" text-anchor="middle"><circle cx="178" cy="777" r="17" fill="#103f49" stroke="#fff" stroke-width="3"/><text x="178" y="781" fill="#fff">1</text><text x="178" y="811" fill="#315d61">Kolkata</text><circle cx="531" cy="644" r="17" fill="#e56f4d" stroke="#fff" stroke-width="3"/><text x="531" y="648" fill="#fff">3</text><text x="531" y="678" fill="#315d61">Sarchu</text><circle cx="900" cy="625" r="19" fill="#0a7e75" stroke="#fff" stroke-width="3"/><text x="900" y="630" fill="#fff">4</text><text x="900" y="659" fill="#315d61">Leh</text><circle cx="1297" cy="615" r="17" fill="#7465a2" stroke="#fff" stroke-width="3"/><text x="1297" y="619" fill="#fff">8</text><text x="1297" y="649" fill="#315d61">Nubra</text></g>
<!-- board info floating -->
<rect x="70" y="384" width="391" height="72" rx="17" fill="#ffffffdf" stroke="#fff" filter="url(#soft)"/><text x="94" y="413" font-size="14" font-weight="700" fill="#173f45">Plan by day, see the route</text><text x="94" y="436" font-size="12" fill="#60777a">Drag a stop to another day. Click a column to focus its route.</text><rect x="350" y="400" width="88" height="33" rx="11" fill="#e5f3ed"/><text x="366" y="421" font-size="11" font-weight="700" fill="#126960">Fit route</text>
<!-- pulse -->
<rect x="1285" y="384" width="239" height="151" rx="18" fill="#ffffffdc" stroke="#fff" filter="url(#soft)"/><text x="1307" y="414" font-size="11" font-weight="700" fill="#6b8284">TRIP PULSE</text><text x="1307" y="445" font-size="25" font-weight="700" fill="#14344d">53</text><text x="1351" y="443" font-size="12" font-weight="700" fill="#af4742">Needs attention</text><rect x="1307" y="458" width="193" height="7" rx="4" fill="#f1e2de"/><rect x="1307" y="458" width="98" height="7" rx="4" fill="#d34d48"/><text x="1307" y="492" font-size="12" fill="#527073">⚠ 3 route days overloaded</text><text x="1307" y="516" font-size="12" font-weight="700" fill="#0b8178">Open health advice →</text>
<!-- columns -->
<g filter="url(#shadow)"><rect x="72" y="476" width="260" height="454" rx="19" fill="#fffffff0"/><rect x="350" y="476" width="260" height="454" rx="19" fill="#fffffff0"/><rect x="628" y="476" width="260" height="454" rx="19" fill="#fffffff0"/><rect x="906" y="476" width="260" height="454" rx="19" fill="#fffffff0"/></g>
<!-- headers -->
<text x="93" y="510" font-size="13" font-weight="700" fill="#183f45">DAY 1</text><text x="93" y="531" font-size="12" fill="#6a8183">1 Sep · Kolkata</text><rect x="258" y="495" width="54" height="25" rx="12" fill="#e4f3ed"/><text x="271" y="512" font-size="11" font-weight="700" fill="#176961">3 stops</text>
<text x="371" y="510" font-size="13" font-weight="700" fill="#183f45">DAY 2</text><text x="371" y="531" font-size="12" fill="#6a8183">2 Sep · Patna</text><rect x="536" y="495" width="54" height="25" rx="12" fill="#e4f3ed"/><text x="549" y="512" font-size="11" font-weight="700" fill="#176961">4 stops</text>
<text x="649" y="510" font-size="13" font-weight="700" fill="#183f45">DAY 3</text><text x="649" y="531" font-size="12" fill="#6a8183">3 Sep · Sarchu</text><rect x="794" y="495" width="74" height="25" rx="12" fill="#fff0e7"/><text x="805" y="512" font-size="11" font-weight="700" fill="#a45d2d">⚠ 5 stops</text>
<text x="927" y="510" font-size="13" font-weight="700" fill="#183f45">DAY 4</text><text x="927" y="531" font-size="12" fill="#6a8183">4 Sep · Leh</text><rect x="1092" y="495" width="54" height="25" rx="12" fill="#e4f3ed"/><text x="1105" y="512" font-size="11" font-weight="700" fill="#176961">3 stops</text>
<path d="M92 548H312M370 548H590M648 548H868M926 548H1146" stroke="#dde9e3"/>
<!-- cards col 1 -->
<g filter="url(#soft)"><rect x="88" y="564" width="228" height="82" rx="13" fill="#fff"/><rect x="88" y="659" width="228" height="77" rx="13" fill="#fff"/><rect x="88" y="750" width="228" height="77" rx="13" fill="#fff"/></g><rect x="101" y="576" width="5" height="58" rx="3" fill="#e46d4c"/><text x="120" y="588" font-size="10" fill="#748789">08:30 · ROUTE DAY</text><text x="120" y="612" font-size="13" font-weight="700" fill="#20474e">Kolkata → Patna</text><text x="120" y="631" font-size="11" fill="#60787a">655 km · 9h 03m  ⚠</text><rect x="101" y="671" width="5" height="48" rx="3" fill="#e4ae42"/><text x="120" y="683" font-size="10" fill="#748789">12:10 · MEAL + FUEL</text><text x="120" y="707" font-size="13" font-weight="700" fill="#20474e">Rafganj halt</text><text x="120" y="725" font-size="11" fill="#60787a">45 min · added</text><rect x="101" y="762" width="5" height="48" rx="3" fill="#4ba78e"/><text x="120" y="774" font-size="10" fill="#748789">20:00 · STAY</text><text x="120" y="798" font-size="13" font-weight="700" fill="#20474e">Census town stay</text><text x="120" y="816" font-size="11" fill="#60787a">Pending booking</text>
<!-- col 2 -->
<g filter="url(#soft)"><rect x="366" y="564" width="228" height="77" rx="13" fill="#fff"/><rect x="366" y="654" width="228" height="77" rx="13" fill="#fff"/><rect x="366" y="744" width="228" height="77" rx="13" fill="#fff"/></g><rect x="379" y="576" width="5" height="48" rx="3" fill="#e46d4c"/><text x="398" y="588" font-size="10" fill="#748789">08:00 · DRIVE</text><text x="398" y="612" font-size="13" font-weight="700" fill="#20474e">Patna → Varanasi</text><text x="398" y="630" font-size="11" fill="#60787a">256 km · 5h 10m</text><rect x="379" y="666" width="5" height="48" rx="3" fill="#897abb"/><text x="398" y="678" font-size="10" fill="#748789">15:30 · ACTIVITY</text><text x="398" y="702" font-size="13" font-weight="700" fill="#20474e">Ganga aarti</text><text x="398" y="720" font-size="11" fill="#60787a">3 of 4 votes</text><rect x="379" y="756" width="5" height="48" rx="3" fill="#4ba78e"/><text x="398" y="768" font-size="10" fill="#748789">19:00 · STAY</text><text x="398" y="792" font-size="13" font-weight="700" fill="#20474e">Old city hotel</text><text x="398" y="810" font-size="11" fill="#60787a">Confirmed</text>
<!-- col 3 -->
<g filter="url(#soft)"><rect x="644" y="564" width="228" height="82" rx="13" fill="#fff6ec" stroke="#f3c888"/><rect x="644" y="659" width="228" height="78" rx="13" fill="#fff"/><rect x="644" y="750" width="228" height="67" rx="13" fill="#ffffff80" stroke="#7dbdaf" stroke-dasharray="4 4"/></g><rect x="657" y="576" width="5" height="58" rx="3" fill="#e46d4c"/><text x="676" y="588" font-size="10" fill="#a16532">08:00 · LONG DRIVE</text><text x="676" y="612" font-size="13" font-weight="700" fill="#20474e">Sarchu → Leh</text><text x="676" y="631" font-size="11" fill="#a16431">252 km · 7h 15m  ⚠</text><rect x="657" y="671" width="5" height="48" rx="3" fill="#e4ae42"/><text x="676" y="683" font-size="10" fill="#748789">11:30 · REST BREAK</text><text x="676" y="707" font-size="13" font-weight="700" fill="#20474e">More Plains tea</text><text x="676" y="725" font-size="11" fill="#60787a">Suggested · 20 min</text><text x="672" y="782" font-size="13" font-weight="700" fill="#176d64">＋ Add or drop a stop</text><text x="672" y="802" font-size="11" fill="#6b8183">Impact preview before saving</text>
<!-- col 4 -->
<g filter="url(#soft)"><rect x="922" y="564" width="228" height="78" rx="13" fill="#fff"/><rect x="922" y="655" width="228" height="78" rx="13" fill="#fff"/><rect x="922" y="746" width="228" height="67" rx="13" fill="#ffffff80" stroke="#7dbdaf" stroke-dasharray="4 4"/></g><rect x="935" y="576" width="5" height="48" rx="3" fill="#4ba78e"/><text x="954" y="588" font-size="10" fill="#748789">10:00 · REST DAY</text><text x="954" y="612" font-size="13" font-weight="700" fill="#20474e">Leh acclimatisation</text><text x="954" y="630" font-size="11" fill="#60787a">Easy day · no drive</text><rect x="935" y="667" width="5" height="48" rx="3" fill="#897abb"/><text x="954" y="679" font-size="10" fill="#748789">17:00 · ACTIVITY</text><text x="954" y="703" font-size="13" font-weight="700" fill="#20474e">Shanti Stupa sunset</text><text x="954" y="721" font-size="11" fill="#60787a">3 / 4 travellers going</text><text x="950" y="778" font-size="13" font-weight="700" fill="#176d64">＋ Add a stop</text><text x="950" y="798" font-size="11" fill="#6b8183">Search near Leh</text>
<!-- map controls -->
<rect x="71" y="947" width="164" height="38" rx="13" fill="#ffffffdd" filter="url(#soft)"/><text x="89" y="972" font-size="12" font-weight="700" fill="#315d61">⊕  ⊖  Fit full route</text><rect x="1190" y="942" width="331" height="44" rx="15" fill="#123f49" filter="url(#soft)"/><text x="1213" y="970" font-size="13" font-weight="700" fill="#fff">✨ Ask YatraFlow: “Make Day 3 easier”</text>
<text x="68" y="1047" font-size="17" font-weight="700" fill="#14334d">3. Board — collaborative rearrangement with the route always visible</text><text x="68" y="1070" font-size="13" fill="#5e7779">A supplementary planning mode: it preserves the detailed Timeline while giving short-to-medium trips a spatial, group-friendly workspace.</text>
</g></svg>